<svg width="69" height="50" viewBox="0 0 69 50" fill="none" xmlns="http://www.w3.org/2000/svg">
<path fill-rule="evenodd" clip-rule="evenodd" d="M22.8215 16.6282C21.246 16.6282 19.9688 17.5588 19.9688 18.7067C19.9688 19.8547 21.246 20.7853 22.8215 20.7853C24.397 20.7853 25.6742 19.8547 25.6742 18.7067C25.6742 17.5588 24.397 16.6282 22.8215 16.6282ZM14.2634 18.7067C14.2634 15.2629 18.095 12.4712 22.8215 12.4712C27.548 12.4712 31.3796 15.2629 31.3796 18.7067C31.3796 22.1505 27.548 24.9423 22.8215 24.9423C18.095 24.9423 14.2634 22.1505 14.2634 18.7067Z" fill="#8B9AA6"/>
<path fill-rule="evenodd" clip-rule="evenodd" d="M5.35939 5.98333C6.96434 4.81394 9.14112 4.15698 11.4109 4.15698H57.054C59.3237 4.15698 61.5005 4.81394 63.1055 5.98333C64.7104 7.15273 65.6121 8.73876 65.6121 10.3925V31.1777C65.6121 32.8315 64.7104 34.4175 63.1055 35.5869C61.5005 36.7563 59.3237 37.4133 57.054 37.4133H11.4109C9.14112 37.4133 6.96434 36.7563 5.35939 35.5869C3.75444 34.4175 2.85278 32.8315 2.85278 31.1777V10.3925C2.85278 8.73876 3.75444 7.15273 5.35939 5.98333ZM11.4109 8.31402C10.6543 8.31402 9.92869 8.533 9.39371 8.9228C8.85873 9.3126 8.55817 9.84128 8.55817 10.3925V31.1777C8.55817 31.729 8.85873 32.2576 9.39371 32.6474C9.92869 33.0372 10.6543 33.2562 11.4109 33.2562H24.4927L41.0586 21.1861C41.0619 21.1837 41.0651 21.1813 41.0684 21.179C41.0719 21.1764 41.0755 21.1739 41.079 21.1714C42.6863 20.0236 44.8493 19.3833 47.0998 19.3891C49.3503 19.395 51.5071 20.0465 53.1031 21.2025L53.109 21.2068L59.9067 26.1597V10.3925C59.9067 9.84128 59.6061 9.3126 59.0712 8.9228C58.5362 8.533 57.8106 8.31402 57.054 8.31402H11.4109ZM59.7255 31.9067L49.0806 24.1506C49.0798 24.15 49.079 24.1494 49.0782 24.1488C48.5464 23.7646 47.8285 23.5481 47.0795 23.5461C46.3333 23.5442 45.6159 23.7554 45.081 24.1342L32.5614 33.2562H57.054C57.8106 33.2562 58.5362 33.0372 59.0712 32.6474C59.3622 32.4354 59.5839 32.1822 59.7255 31.9067Z" fill="#8B9AA6"/>
<path fill-rule="evenodd" clip-rule="evenodd" d="M19.9688 43.6488C19.9688 42.5009 21.2459 41.5703 22.8214 41.5703H45.643C47.2185 41.5703 48.4957 42.5009 48.4957 43.6488C48.4957 44.7968 47.2185 45.7273 45.643 45.7273H22.8214C21.2459 45.7273 19.9688 44.7968 19.9688 43.6488Z" fill="#8B9AA6"/>
<path fill-rule="evenodd" clip-rule="evenodd" d="M34.2323 33.2563C35.8078 33.2563 37.085 34.1869 37.085 35.3349V43.6489C37.085 44.7969 35.8078 45.7275 34.2323 45.7275C32.6568 45.7275 31.3796 44.7969 31.3796 43.6489V35.3349C31.3796 34.1869 32.6568 33.2563 34.2323 33.2563Z" fill="#8B9AA6"/>
</svg>
