<svg width="18" height="18" viewBox="0 0 18 18" fill="none" xmlns="http://www.w3.org/2000/svg">
<path d="M18 8.4375C18 9.36948 17.2232 10.125 16.2649 10.125C15.3066 10.125 14.5298 9.36948 14.5298 8.4375V1.6875C14.5298 0.755521 15.3066 9.8665e-07 16.2649 1.06813e-06C17.2232 1.1496e-06 18 0.755521 18 1.6875V8.4375Z" fill="#9C9C9C"/>
<path d="M13.3731 8.625V2.51558C13.3731 1.66334 12.878 0.884248 12.0942 0.503117L12.0366 0.475078C11.3941 0.162654 10.6856 5.93753e-07 9.96733 5.32679e-07L3.70233 0C2.59955 -9.37637e-08 1.65007 0.757034 1.43379 1.80874L0.045712 8.55874C-0.240599 9.95102 0.854347 11.25 2.31425 11.25H6.43267V15.75C6.43267 16.9926 7.46845 18 8.74614 18C9.38498 18 9.90287 17.4963 9.90287 16.875V16.125C9.90287 15.1513 10.2276 14.2039 10.8283 13.425L12.4477 11.325C13.0484 10.5461 13.3731 9.59867 13.3731 8.625Z" fill="#9C9C9C"/>
</svg>
