<svg width="40" height="40" viewBox="0 0 40 40" fill="none" xmlns="http://www.w3.org/2000/svg">
<path fill-rule="evenodd" clip-rule="evenodd" d="M4.50482 4.50484C3.33325 5.67641 3.33325 7.56203 3.33325 11.3333V28.6666C3.33325 32.4378 3.33325 34.3235 4.50482 35.495C5.6764 36.6666 7.56202 36.6666 11.3333 36.6666H28.6666C32.4378 36.6666 34.3234 36.6666 35.495 35.495C36.6666 34.3235 36.6666 32.4378 36.6666 28.6666V11.3333C36.6666 7.96685 36.6666 6.10296 35.8332 4.90825V28.3333C35.0038 28.3333 34.5891 28.3333 34.1961 28.2537C33.6904 28.1512 33.2094 27.952 32.7794 27.6669C32.4452 27.4452 32.152 27.152 31.5655 26.5655L29.495 24.495C28.1617 23.1617 27.495 22.495 26.6666 22.495C25.8382 22.495 25.1715 23.1617 23.8382 24.495L22.0888 26.2444C21.1424 27.1908 20.6691 27.664 20.1481 27.5637C19.6271 27.4634 19.3635 26.8483 18.8363 25.6181L17.3272 22.097C16.2728 19.6366 15.7456 18.4064 14.7035 18.2057C13.6615 18.0051 12.7151 18.9515 10.8222 20.8443L5.83325 25.8333V3.71875C5.2988 3.89164 4.86758 4.14208 4.50482 4.50484Z" fill="#8B9AA6"/>
<path d="M11.3333 4.3335H28.6666C30.5805 4.3335 31.9153 4.33562 32.9224 4.47103C33.9008 4.60256 34.4189 4.84316 34.7879 5.21218C35.1569 5.58119 35.3975 6.09929 35.5291 7.07766C35.6645 8.08479 35.6666 9.41961 35.6666 11.3335V28.6668C35.6666 30.5807 35.6645 31.9155 35.5291 32.9227C35.3975 33.901 35.1569 34.4191 34.7879 34.7882C34.4189 35.1572 33.9008 35.3978 32.9224 35.5293C31.9153 35.6647 30.5805 35.6668 28.6666 35.6668H11.3333C9.41936 35.6668 8.08455 35.6647 7.07741 35.5293C6.09905 35.3978 5.58095 35.1572 5.21193 34.7882C4.84291 34.4191 4.60232 33.901 4.47078 32.9227C4.33538 31.9155 4.33325 30.5807 4.33325 28.6668V11.3335C4.33325 9.41961 4.33538 8.08479 4.47078 7.07766C4.60232 6.09929 4.84291 5.58119 5.21193 5.21218C5.58095 4.84316 6.09905 4.60256 7.07741 4.47103C8.08455 4.33562 9.41936 4.3335 11.3333 4.3335Z" stroke="#8B9AA6" stroke-width="2"/>
<ellipse cx="25.0001" cy="14.9998" rx="3.33333" ry="3.33333" fill="#8B9AA6"/>
</svg>
