<svg width="51" height="51" viewBox="0 0 51 51" fill="none" xmlns="http://www.w3.org/2000/svg">
<path d="M25.6946 0.010376H25.5808C11.8051 0.010376 0.637695 11.1778 0.637695 24.9534V25.0673C0.637695 38.843 11.8051 50.0104 25.5808 50.0104H25.6946C39.4703 50.0104 50.6377 38.843 50.6377 25.0673V24.9534C50.6377 11.1778 39.4703 0.010376 25.6946 0.010376Z" fill="url(#paint0_linear_0_41)"/>
<path d="M33.3745 10.1827H17.9031C13.6288 10.1827 10.1516 13.6599 10.1516 17.9342V32.0883C10.1516 36.3625 13.6288 39.8397 17.9031 39.8397H33.3745C37.6487 39.8397 41.1259 36.3625 41.1259 32.0883V17.9342C41.1259 13.6599 37.6487 10.1827 33.3745 10.1827ZM12.8861 17.9342C12.8861 15.1682 15.1371 12.9172 17.9031 12.9172H33.3745C36.1405 12.9172 38.3915 15.1682 38.3915 17.9342V32.0883C38.3915 34.8543 36.1405 37.1053 33.3745 37.1053H17.9031C15.1371 37.1053 12.8861 34.8543 12.8861 32.0883V17.9342Z" fill="white"/>
<path d="M25.6386 32.2198C29.6134 32.2198 32.8488 28.9861 32.8488 25.0096C32.8488 21.0332 29.6151 17.7994 25.6386 17.7994C21.6622 17.7994 18.4285 21.0332 18.4285 25.0096C18.4285 28.9861 21.6622 32.2198 25.6386 32.2198ZM25.6386 20.5357C28.1069 20.5357 30.1143 22.5432 30.1143 25.0114C30.1143 27.4796 28.1069 29.4871 25.6386 29.4871C23.1704 29.4871 21.1629 27.4796 21.1629 25.0114C21.1629 22.5432 23.1704 20.5357 25.6386 20.5357Z" fill="white"/>
<path d="M33.5158 18.9641C34.5861 18.9641 35.4585 18.0935 35.4585 17.0214C35.4585 15.9494 34.5879 15.0787 33.5158 15.0787C32.4437 15.0787 31.5731 15.9494 31.5731 17.0214C31.5731 18.0935 32.4437 18.9641 33.5158 18.9641Z" fill="white"/>
<defs>
<linearGradient id="paint0_linear_0_41" x1="7.94246" y1="42.7056" x2="43.3329" y2="7.3169" gradientUnits="userSpaceOnUse">
<stop stop-color="#FAAD4F"/>
<stop offset="0.35" stop-color="#DD2A7B"/>
<stop offset="0.62" stop-color="#9537B0"/>
<stop offset="1" stop-color="#515BD4"/>
</linearGradient>
</defs>
</svg>
