<svg width="60" height="60" viewBox="0 0 60 60" fill="none" xmlns="http://www.w3.org/2000/svg">
<path fill-rule="evenodd" clip-rule="evenodd" d="M26.4394 32.1463L10.6922 26.8972C8.33896 26.1128 7.16235 25.7206 7.16235 24.9999C7.16235 24.2791 8.33896 23.8869 10.6922 23.1025L46.2053 11.2648C47.8611 10.7128 48.689 10.4369 49.126 10.8739C49.5631 11.3109 49.2871 12.1388 48.7352 13.7946L36.8974 49.3078C36.113 51.661 35.7208 52.8376 35.0001 52.8376C34.2793 52.8376 33.8871 51.661 33.1027 49.3078L27.8536 33.5605L38.2072 23.207C38.5977 22.8164 38.5977 22.1833 38.2072 21.7927C37.8167 21.4022 37.1835 21.4022 36.793 21.7927L26.4394 32.1463Z" fill="#333333"/>
</svg>
