<svg width="40" height="40" viewBox="0 0 40 40" fill="none" xmlns="http://www.w3.org/2000/svg">
<circle cx="20" cy="20" r="16" stroke="#8B9AA6" stroke-width="2" stroke-linecap="round"/>
<path d="M13.5718 25.7559C14.2985 26.3853 15.2843 26.8619 16.3892 27.1809C17.5021 27.5021 18.746 27.6667 19.9999 27.6667C21.2539 27.6667 22.4977 27.5021 23.6106 27.1809C24.7155 26.8619 25.7014 26.3853 26.4281 25.7559" stroke="#8B9AA6" stroke-width="2" stroke-linecap="round"/>
<path d="M14.9999 18.5833C16.0585 18.5833 16.9166 17.7252 16.9166 16.6667C16.9166 15.6081 16.0585 14.75 14.9999 14.75C13.9414 14.75 13.0833 15.6081 13.0833 16.6667C13.0833 17.7252 13.9414 18.5833 14.9999 18.5833Z" fill="#8B9AA6" stroke="#8B9AA6" stroke-width="0.5" stroke-linecap="round"/>
<path d="M24.9999 18.5833C26.0585 18.5833 26.9166 17.7252 26.9166 16.6667C26.9166 15.6081 26.0585 14.75 24.9999 14.75C23.9414 14.75 23.0833 15.6081 23.0833 16.6667C23.0833 17.7252 23.9414 18.5833 24.9999 18.5833Z" fill="#8B9AA6" stroke="#8B9AA6" stroke-width="0.5" stroke-linecap="round"/>
</svg>
