<svg width="31" height="31" viewBox="0 0 31 31" fill="none" xmlns="http://www.w3.org/2000/svg">
<path d="M15.8667 0.010376H15.7984C7.53295 0.010376 0.83252 6.71081 0.83252 14.9762V15.0445C0.83252 23.3099 7.53295 30.0104 15.7984 30.0104H15.8667C24.1321 30.0104 30.8325 23.3099 30.8325 15.0445V14.9762C30.8325 6.71081 24.1321 0.010376 15.8667 0.010376Z" fill="#00B0F2"/>
<path d="M6.51448 14.498C6.55652 14.4769 6.59858 14.457 6.63957 14.438C7.35218 14.108 8.07425 13.799 8.79527 13.49C8.83416 13.49 8.8993 13.4448 8.93609 13.4301C8.9918 13.4059 9.04751 13.3828 9.10322 13.3586L9.42379 13.2209C9.6382 13.1295 9.85155 13.038 10.066 12.9466C10.4937 12.7637 10.9215 12.5808 11.3493 12.3969C12.2048 12.0311 13.0615 11.6643 13.917 11.2986C14.7726 10.9328 15.6292 10.566 16.4847 10.2002C17.3403 9.83446 18.1969 9.46764 19.0524 9.10188C19.908 8.73612 20.7646 8.3693 21.6201 8.00354C21.8104 7.92156 22.0164 7.79964 22.2203 7.7639C22.3916 7.73342 22.5587 7.67456 22.7311 7.64198C23.0579 7.57997 23.4185 7.55474 23.7317 7.69033C23.8399 7.73762 23.9398 7.80384 24.0228 7.88687C24.4201 8.27996 24.3644 8.92531 24.2803 9.47816C23.6949 13.3313 23.1094 17.1855 22.523 21.0386C22.4431 21.5673 22.3338 22.1475 21.9165 22.4817C21.5634 22.7644 21.061 22.796 20.6248 22.6761C20.1886 22.5553 19.8039 22.302 19.4266 22.0529C17.8616 21.0165 16.2955 19.9802 14.7305 18.9439C14.3585 18.6979 13.9443 18.3763 13.9485 17.9296C13.9507 17.6605 14.1114 17.4209 14.2754 17.2075C15.6355 15.4334 17.5978 14.2142 19.0577 12.522C19.2637 12.2834 19.4255 11.8525 19.1428 11.7148C18.9746 11.6328 18.7812 11.7442 18.6278 11.8504C16.6981 13.1905 14.7694 14.5316 12.8397 15.8717C12.2101 16.3089 11.5501 16.7588 10.7912 16.866C10.1122 16.9627 9.42905 16.7735 8.77215 16.5801C8.2214 16.4182 7.67168 16.2521 7.12409 16.0808C6.83295 15.9904 6.53235 15.8927 6.30742 15.6877C6.0825 15.4828 5.95324 15.138 6.08882 14.8648C6.17396 14.6934 6.33897 14.5852 6.5124 14.4969L6.51448 14.498Z" fill="#FEFFFC"/>
</svg>
