<svg width="69" height="51" viewBox="0 0 69 51" fill="none" xmlns="http://www.w3.org/2000/svg">
<path fill-rule="evenodd" clip-rule="evenodd" d="M43.225 11.0494C43.225 9.91351 44.4954 8.99268 46.0625 8.99268H63.088C64.6551 8.99268 65.9256 9.91351 65.9256 11.0494C65.9256 12.1853 64.6551 13.1062 63.088 13.1062H46.0625C44.4954 13.1062 43.225 12.1853 43.225 11.0494Z" fill="#8B9AA6"/>
<path fill-rule="evenodd" clip-rule="evenodd" d="M54.5752 2.82227C56.1424 2.82227 57.4128 3.7431 57.4128 4.879V17.2194C57.4128 18.3553 56.1424 19.2762 54.5752 19.2762C53.0081 19.2762 51.7377 18.3553 51.7377 17.2194V4.879C51.7377 3.7431 53.0081 2.82227 54.5752 2.82227Z" fill="#8B9AA6"/>
<path fill-rule="evenodd" clip-rule="evenodd" d="M14.8493 8.99263C14.0967 8.99263 13.3749 9.20932 12.8428 9.59503C12.3107 9.98074 12.0117 10.5039 12.0117 11.0494V39.8437C12.0117 40.3892 12.3107 40.9123 12.8428 41.298C13.3749 41.6837 14.0967 41.9004 14.8493 41.9004H54.5753C55.3279 41.9004 56.0496 41.6837 56.5818 41.298C57.1139 40.9123 57.4129 40.3892 57.4129 39.8437V24.4182C57.4129 23.2823 58.6833 22.3614 60.2504 22.3614C61.8176 22.3614 63.088 23.2823 63.088 24.4182V39.8437C63.088 41.4801 62.1911 43.0495 60.5947 44.2067C58.9983 45.3638 56.833 46.0139 54.5753 46.0139H14.8493C12.5916 46.0139 10.4263 45.3638 8.82987 44.2067C7.23342 43.0495 6.33655 41.4801 6.33655 39.8437V11.0494C6.33655 9.41292 7.23342 7.8435 8.82987 6.68636C10.4263 5.52922 12.5916 4.87915 14.8493 4.87915H36.1311C37.6982 4.87915 38.9686 5.79998 38.9686 6.93589C38.9686 8.07179 37.6982 8.99263 36.1311 8.99263H14.8493Z" fill="#8B9AA6"/>
<path fill-rule="evenodd" clip-rule="evenodd" d="M41.4628 23.8151C43.0592 22.6584 45.2241 22.0085 47.4813 22.0085C49.7386 22.0085 51.9035 22.6584 53.4998 23.8151L51.4939 25.2695L53.5001 23.8153L62.2569 30.1624C63.365 30.9656 63.365 32.2679 62.2569 33.0711C61.1487 33.8743 59.3521 33.8743 58.244 33.0711L49.4875 26.7242C48.9554 26.3386 48.2338 26.122 47.4813 26.122C46.7291 26.122 46.0076 26.3385 45.4755 26.724C45.4754 26.7241 45.4753 26.7241 45.4752 26.7242L19.6933 45.4115C18.5851 46.2147 16.7885 46.2147 15.6803 45.4115C14.5722 44.6083 14.5722 43.306 15.6803 42.5028L41.4625 23.8153L43.4688 25.2695L41.4628 23.8151Z" fill="#8B9AA6"/>
<path fill-rule="evenodd" clip-rule="evenodd" d="M26.1995 17.2194C24.6323 17.2194 23.3619 18.1403 23.3619 19.2762C23.3619 20.4121 24.6323 21.3329 26.1995 21.3329C27.7666 21.3329 29.0371 20.4121 29.0371 19.2762C29.0371 18.1403 27.7666 17.2194 26.1995 17.2194ZM17.6868 19.2762C17.6868 15.8685 21.498 13.106 26.1995 13.106C30.9009 13.106 34.7122 15.8685 34.7122 19.2762C34.7122 22.6839 30.9009 25.4464 26.1995 25.4464C21.498 25.4464 17.6868 22.6839 17.6868 19.2762Z" fill="#8B9AA6"/>
</svg>
