<svg width="22" height="26" viewBox="0 0 22 26" fill="none" xmlns="http://www.w3.org/2000/svg">
<path fill-rule="evenodd" clip-rule="evenodd" d="M13.3333 4.27273C13.3333 1.89575 15.2908 0 17.6667 0C20.0425 0 22 1.89575 22 4.27273C22 6.64971 20.0425 8.54545 17.6667 8.54545C16.4839 8.54545 15.4084 8.07728 14.6248 7.31572L8.44541 11.6493C8.58888 12.0741 8.66667 12.5285 8.66667 13C8.66667 13.4715 8.58888 13.9259 8.44541 14.3507L14.6248 18.6843C15.4084 17.9227 16.4839 17.4545 17.6667 17.4545C20.0425 17.4545 22 19.3503 22 21.7273C22 24.1043 20.0425 26 17.6667 26C15.2908 26 13.3333 24.1043 13.3333 21.7273C13.3333 21.2557 13.4111 20.8014 13.5546 20.3766L7.37523 16.043C6.5916 16.8046 5.51611 17.2727 4.33333 17.2727C1.95748 17.2727 0 15.377 0 13C0 10.623 1.95748 8.72727 4.33333 8.72727C5.51611 8.72727 6.5916 9.19545 7.37523 9.95701L13.5546 5.62343C13.4111 5.19863 13.3333 4.74427 13.3333 4.27273Z" fill="black"/>
</svg>
