<svg width="30" height="30" viewBox="0 0 30 30" fill="none" xmlns="http://www.w3.org/2000/svg">
<g clip-path="url(#clip0_15_353)">
<path d="M0 14.4C0 7.61178 0 4.21767 2.10883 2.10883C4.21767 0 7.61178 0 14.4 0H15.6C22.3882 0 25.7823 0 27.8912 2.10883C30 4.21767 30 7.61178 30 14.4V15.6C30 22.3882 30 25.7823 27.8912 27.8912C25.7823 30 22.3882 30 15.6 30H14.4C7.61178 30 4.21767 30 2.10883 27.8912C0 25.7823 0 22.3882 0 15.6V14.4Z" fill="#0077FF"/>
<path d="M15.9626 21.6125C9.12504 21.6125 5.22507 16.925 5.06256 9.125H8.48757C8.60007 14.85 11.125 17.275 13.125 17.775V9.125H16.3501V14.0625C18.3251 13.85 20.3999 11.6 21.0999 9.125H24.325C23.7875 12.175 21.5375 14.425 19.9375 15.35C21.5375 16.1 24.1001 18.0625 25.0751 21.6125H21.525C20.7625 19.2375 18.8626 17.4 16.3501 17.15V21.6125H15.9626Z" fill="white"/>
</g>
<defs>
<clipPath id="clip0_15_353">
<rect width="30" height="30" fill="white"/>
</clipPath>
</defs>
</svg>
