<svg width="31" height="31" viewBox="0 0 31 31" fill="none" xmlns="http://www.w3.org/2000/svg">
<path d="M15.995 0.010376H15.9267C7.66125 0.010376 0.960815 6.71081 0.960815 14.9762V15.0445C0.960815 23.3099 7.66125 30.0104 15.9267 30.0104H15.995C24.2604 30.0104 30.9608 23.3099 30.9608 15.0445V14.9762C30.9608 6.71081 24.2604 0.010376 15.995 0.010376Z" fill="#00E510"/>
<path d="M18.8843 19.398C15.0448 19.398 11.9211 16.2732 11.9201 12.4338C11.9211 11.4605 12.7136 10.6691 13.6848 10.6691C13.7846 10.6691 13.8834 10.6775 13.978 10.6943C14.1861 10.729 14.3837 10.7994 14.5656 10.9056C14.5918 10.9213 14.6097 10.9465 14.6139 10.976L15.0196 13.5332C15.0249 13.5636 15.0154 13.5931 14.9954 13.6151C14.7716 13.8632 14.4857 14.0419 14.1672 14.1312L14.0138 14.1743L14.0716 14.3225C14.595 15.6552 15.6607 16.7199 16.9945 17.2455L17.1427 17.3043L17.1858 17.1509C17.2751 16.8324 17.4538 16.5465 17.7019 16.3226C17.7197 16.3058 17.7439 16.2974 17.7681 16.2974C17.7733 16.2974 17.7786 16.2974 17.7849 16.2985L20.3421 16.7042C20.3726 16.7094 20.3978 16.7262 20.4136 16.7525C20.5187 16.9344 20.5891 17.133 20.6248 17.3411C20.6417 17.4336 20.649 17.5313 20.649 17.6333C20.649 18.6055 19.8576 19.397 18.8843 19.398Z" fill="#FDFDFD"/>
<path d="M25.693 14.168C25.4859 11.8284 24.4138 9.65796 22.6744 8.05722C20.9244 6.44702 18.6541 5.55994 16.2798 5.55994C11.0687 5.55994 6.8288 9.79985 6.8288 15.0109C6.8288 16.7599 7.31122 18.4636 8.22458 19.9477L6.18765 24.4567L12.7094 23.7619C13.8435 24.2265 15.0438 24.4619 16.2787 24.4619C16.6035 24.4619 16.9367 24.4451 17.2709 24.4104C17.5652 24.3789 17.8627 24.3327 18.1549 24.2738C22.5188 23.392 25.7045 19.5189 25.7298 15.0614V15.0109C25.7298 14.7272 25.7171 14.4434 25.6919 14.168H25.693ZM12.9606 21.7828L9.35236 22.1675L10.4297 19.7806L10.2142 19.4915C10.1984 19.4705 10.1827 19.4495 10.1648 19.4253C9.22939 18.1336 8.73539 16.6075 8.73539 15.012C8.73539 10.852 12.1198 7.46758 16.2798 7.46758C20.1771 7.46758 23.4805 10.5083 23.799 14.3898C23.8158 14.5979 23.8253 14.807 23.8253 15.013C23.8253 15.0719 23.8242 15.1297 23.8232 15.1917C23.7433 18.6717 21.3122 21.6273 17.911 22.3798C17.6514 22.4376 17.3855 22.4818 17.1206 22.5101C16.8453 22.5417 16.5625 22.5574 16.2819 22.5574C15.2824 22.5574 14.3112 22.3641 13.3936 21.9815C13.2917 21.9405 13.1918 21.8963 13.0983 21.8511L12.9616 21.7849L12.9606 21.7828Z" fill="#FDFDFD"/>
</svg>
