<svg width="26" height="28" viewBox="0 0 26 28" fill="none" xmlns="http://www.w3.org/2000/svg">
<path d="M3.25 10.5V22.6333C3.25 23.2867 3.25 23.6132 3.36808 23.8628C3.47194 24.0823 3.63755 24.2611 3.84139 24.373C4.0729 24.5 4.37612 24.5 4.98166 24.5H16.2501M15.1667 15.1667V11.6667M15.1667 11.6667V8.16667M15.1667 11.6667H11.9167M15.1667 11.6667H18.4167M7.58333 16.1002V7.23356C7.58333 5.92677 7.58333 5.27289 7.81949 4.77376C8.02721 4.33472 8.35843 3.97802 8.76611 3.75432C9.22959 3.5 9.83676 3.5 11.0502 3.5H19.2835C20.497 3.5 21.1034 3.5 21.5669 3.75432C21.9746 3.97802 22.3064 4.33472 22.5141 4.77376C22.7502 5.27289 22.7502 5.92631 22.7502 7.23307L22.7502 16.0998C22.7502 17.4066 22.7502 18.06 22.5141 18.5591C22.3064 18.9981 21.9746 19.3556 21.5669 19.5793C21.1038 19.8333 20.4983 19.8333 19.2872 19.8333H11.0466C9.83558 19.8333 9.22913 19.8333 8.76611 19.5793C8.35843 19.3556 8.02721 18.9982 7.81949 18.5592C7.58333 18.0601 7.58333 17.407 7.58333 16.1002Z" stroke="#5B8AD4" stroke-width="1.5" stroke-linecap="round" stroke-linejoin="round"/>
</svg>
