<svg width="20" height="20" viewBox="0 0 20 20" fill="none" xmlns="http://www.w3.org/2000/svg">
<path d="M18.2422 0H1.75781C0.786992 0 0 1.15126 0 2.57143V17.4286C0 18.8487 0.786992 20 1.75781 20H18.2422C19.213 20 20 18.8487 20 17.4286V2.57143C20 1.15126 19.213 0 18.2422 0ZM16.8356 14.7081C16.5893 15.0146 16.2194 14.9712 16.0097 14.6105L12.6278 8.79371L10.2904 10.7445C10.1104 10.8947 9.88957 10.8946 9.70969 10.7445L7.37223 8.79371L3.99031 14.6104C3.78078 14.9709 3.4109 15.0148 3.16438 14.708C2.91785 14.4013 2.88801 13.8604 3.09766 13.4998L6.33645 7.92926L3.45969 5.52834C3.17859 5.29383 3.08074 4.77029 3.24105 4.35914C3.40145 3.94789 3.75926 3.8048 4.04035 4.03931C4.27875 4.23823 9.73117 8.78869 10 9.01309C10.2685 8.78897 15.7206 4.2388 15.9596 4.03931C16.2406 3.80474 16.5986 3.94789 16.7589 4.35914C16.9193 4.77029 16.8214 5.29377 16.5403 5.52834L13.6636 7.92926L16.9023 13.4998C17.112 13.8605 17.0821 14.4013 16.8356 14.7081Z" fill="#FEC00F"/>
</svg>
