<svg width="25" height="25" viewBox="0 0 25 25" fill="none" xmlns="http://www.w3.org/2000/svg">
<path d="M19.4443 23.1531C17.0884 24.4765 14.3866 25.1078 11.6673 24.9702C10.1146 25.0837 8.55479 24.8719 7.09397 24.3493C5.63314 23.8267 4.30546 23.0055 3.20113 21.9415C2.09679 20.8775 1.24165 19.5956 0.693797 18.1829C0.145944 16.7702 -0.0817906 15.2597 0.0260606 13.7541C-0.0390435 11.9684 0.268219 10.1882 0.92946 8.52024C1.5907 6.85224 2.59233 5.33068 3.87441 4.04659C5.1565 2.7625 6.69268 1.74228 8.39104 1.04699C10.0894 0.351691 11.915 -0.00439424 13.7587 4.09264e-05C19.8137 4.09264e-05 25 3.39474 25 9.89035C25 15.2774 21.7089 18.9264 17.6128 18.9264C15.8908 18.9264 14.8107 18.25 14.7445 16.6625C14.2625 17.3799 13.5974 17.9645 12.8137 18.3594C12.0299 18.7544 11.1542 18.9463 10.2714 18.9166C7.80303 18.9166 6.1218 17.3241 6.1218 14.1689C6.1218 9.81629 9.04613 5.77474 12.7958 5.77474C13.5843 5.67673 14.3831 5.85393 15.0491 6.27463C15.7152 6.69532 16.2049 7.33204 16.4308 8.07079L16.9683 6.07347H19.2609L17.2409 13.9837C16.6652 16.2452 16.9097 16.9834 18.112 16.9834C20.6186 16.9834 22.7813 13.9961 22.7813 10.0089C22.7813 4.90323 19.1004 1.94798 13.5829 1.94798C6.85288 1.94798 2.44347 7.21163 2.42309 13.764C2.31876 14.9881 2.48939 16.2196 2.92324 17.3737C3.35708 18.5278 4.04383 19.577 4.93621 20.4492C5.82858 21.3214 6.90537 21.9957 8.09244 22.4259C9.27951 22.856 10.5487 23.0317 11.8125 22.9408C14.2911 23.0403 16.7524 22.5001 18.945 21.3756L19.4443 23.1531ZM8.62327 13.9665C8.62327 15.9119 9.4053 16.9439 10.949 16.9439C12.8798 16.9439 14.4643 15.4626 15.2361 12.4234C16.0589 9.29289 15.3278 7.69799 13.0123 7.69799C10.3631 7.69799 8.62327 11.0038 8.62327 13.9665Z" fill="#FEC00F"/>
</svg>
