<svg width="25" height="25" viewBox="0 0 25 25" fill="none" xmlns="http://www.w3.org/2000/svg">
<path fill-rule="evenodd" clip-rule="evenodd" d="M0.87868 0.87868C0 1.75736 0 3.17157 0 6V19C0 21.8284 0 23.2426 0.87868 24.1213C1.75736 25 3.17157 25 6 25H19C21.8284 25 23.2426 25 24.1213 24.1213C25 23.2426 25 21.8284 25 19V6C25 3.17157 25 1.75736 24.1213 0.87868C23.2426 0 21.8284 0 19 0H6C3.17157 0 1.75736 0 0.87868 0.87868ZM4.81742 6.3836C4.39809 6.02418 3.76679 6.07274 3.40737 6.49207C3.04795 6.91139 3.09651 7.54269 3.51583 7.90211L11.1984 14.4872C11.9474 15.1291 13.0526 15.1291 13.8015 14.4872L21.4841 7.90211C21.9034 7.54269 21.952 6.91139 21.5925 6.49207C21.2331 6.07274 20.6018 6.02418 20.1825 6.3836L12.5 12.9686L4.81742 6.3836Z" fill="#FEC00F"/>
</svg>
