<svg width="20" height="20" viewBox="0 0 20 20" fill="none" xmlns="http://www.w3.org/2000/svg">
<path fill-rule="evenodd" clip-rule="evenodd" d="M18.1651 0C18.7644 0 19.2966 0.372797 19.6314 0.949421L9.90633 11.5335L0.267855 1.14162C0.59012 0.45698 1.17137 0 1.83486 0H18.1651ZM0 17.619V3.01973L6.91586 10.4762L0.0142565 17.9173C0.00484922 17.8196 0 17.7201 0 17.619ZM0.632498 19.4176C0.954517 19.7804 1.37493 20 1.83486 20H18.1651C18.5605 20 18.9266 19.8378 19.2261 19.5618L11.8772 11.5638L10.5557 13.0021C10.1819 13.4089 9.63742 13.4105 9.26222 13.006L7.92076 11.5596L0.632498 19.4176ZM12.8766 10.4762L19.9499 18.1742C19.9826 17.9961 20 17.8102 20 17.619V2.72357L12.8766 10.4762Z" fill="#FEC00F"/>
</svg>
