<svg width="25" height="25" viewBox="0 0 25 25" fill="none" xmlns="http://www.w3.org/2000/svg">
<path d="M22.8027 0H2.19727C0.98374 0 0 1.43907 0 3.21429V21.7857C0 23.5609 0.98374 25 2.19727 25H22.8027C24.0163 25 25 23.5609 25 21.7857V3.21429C25 1.43907 24.0163 0 22.8027 0ZM21.0445 18.3851C20.7366 18.7683 20.2742 18.714 20.0121 18.2631L15.7848 10.9921L12.8629 13.4306C12.638 13.6184 12.362 13.6183 12.1371 13.4306L9.21528 10.9921L4.98789 18.263C4.72598 18.7136 4.26362 18.7685 3.95547 18.385C3.64731 18.0016 3.61001 17.3255 3.87207 16.8747L7.92056 9.91157L4.32461 6.91043C3.97324 6.61729 3.85093 5.96286 4.05132 5.44893C4.25181 4.93486 4.69907 4.756 5.05044 5.04914C5.34844 5.29779 12.164 10.9859 12.5 11.2664C12.8356 10.9862 19.6508 5.2985 19.9496 5.04914C20.3008 4.75593 20.7482 4.93486 20.9487 5.44893C21.1491 5.96286 21.0268 6.61721 20.6754 6.91043L17.0794 9.91157L21.1279 16.8747C21.39 17.3256 21.3527 18.0016 21.0445 18.3851Z" fill="#FEC00F"/>
</svg>
