<svg width="41" height="40" viewBox="0 0 41 40" fill="none" xmlns="http://www.w3.org/2000/svg">
<path d="M40.2043 20.0007C40.2043 30.1019 32.717 38.4528 22.9902 39.808C22.0808 39.9341 21.1503 40 20.2058 40C19.1155 40 18.0449 39.9131 17.0023 39.7449C7.48014 38.2118 0.207153 29.9548 0.207153 20.0007C0.207153 8.95491 9.16175 0 20.2072 0C31.2526 0 40.2072 8.95491 40.2072 20.0007H40.2043Z" fill="#1877F7"/>
<path d="M22.9903 16.0601V20.417H28.3798L27.5264 26.2861H22.9903V39.8081C22.0808 39.9342 21.1503 40.0001 20.2058 40.0001C19.1155 40.0001 18.0449 39.9132 17.0023 39.745V26.2861H12.0317V20.417H17.0023V15.0861C17.0023 11.7788 19.6831 9.09656 22.9917 9.09656V9.09936C23.0015 9.09936 23.0099 9.09656 23.0197 9.09656H28.3812V14.1724H24.8779C23.8367 14.1724 22.9917 15.0174 22.9917 16.0587L22.9903 16.0601Z" fill="white"/>
</svg>
