<svg width="19" height="19" viewBox="0 0 19 19" fill="none" xmlns="http://www.w3.org/2000/svg">
<path d="M9.49996 3.24984V1.1665M9.49996 3.24984C8.34937 3.24984 7.41663 4.18258 7.41663 5.33317C7.41663 6.48376 8.34937 7.4165 9.49996 7.4165M9.49996 3.24984C10.6506 3.24984 11.5833 4.18258 11.5833 5.33317C11.5833 6.48376 10.6506 7.4165 9.49996 7.4165M3.24996 15.7498C4.40055 15.7498 5.33329 14.8171 5.33329 13.6665C5.33329 12.5159 4.40055 11.5832 3.24996 11.5832M3.24996 15.7498C2.09937 15.7498 1.16663 14.8171 1.16663 13.6665C1.16663 12.5159 2.09937 11.5832 3.24996 11.5832M3.24996 15.7498V17.8332M3.24996 11.5832V1.1665M9.49996 7.4165V17.8332M15.75 15.7498C16.9006 15.7498 17.8333 14.8171 17.8333 13.6665C17.8333 12.5159 16.9006 11.5832 15.75 11.5832M15.75 15.7498C14.5994 15.7498 13.6666 14.8171 13.6666 13.6665C13.6666 12.5159 14.5994 11.5832 15.75 11.5832M15.75 15.7498V17.8332M15.75 11.5832V1.1665" stroke="white" stroke-width="2" stroke-linecap="round" stroke-linejoin="round"/>
</svg>
