<svg width="30" height="30" viewBox="0 0 30 30" fill="none" xmlns="http://www.w3.org/2000/svg">
<g clip-path="url(#clip0_11_579)">
<path d="M2.04545 26.2557H6.81818V14.6648L0 9.55115V24.2102C0 25.3421 0.917045 26.2557 2.04545 26.2557Z" fill="#4285F4"/>
<path d="M23.1818 26.2557H27.9545C29.0863 26.2557 29.9999 25.3386 29.9999 24.2102V9.55115L23.1818 14.6648" fill="#34A853"/>
<path d="M23.1818 5.80126V14.6649L29.9999 9.55126V6.82398C29.9999 4.29444 27.1124 2.85239 25.0909 4.36944" fill="#FBBC04"/>
<path d="M6.81824 14.6648V5.80115L15.0001 11.9375L23.1819 5.80115V14.6648L15.0001 20.8011" fill="#EA4335"/>
<path d="M0 6.82398V9.55126L6.81818 14.6649V5.80126L4.90909 4.36944C2.88409 2.85239 0 4.29444 0 6.82398" fill="#C5221F"/>
</g>
<defs>
<clipPath id="clip0_11_579">
<rect width="30" height="30" fill="white"/>
</clipPath>
</defs>
</svg>
