<svg width="18" height="18" viewBox="0 0 18 18" fill="none" xmlns="http://www.w3.org/2000/svg">
<path d="M0 9.5625C0 8.63052 0.77683 7.875 1.7351 7.875C2.69337 7.875 3.4702 8.63052 3.4702 9.5625V16.3125C3.4702 17.2445 2.69337 18 1.7351 18C0.77683 18 0 17.2445 0 16.3125V9.5625Z" fill="#9C9C9C"/>
<path d="M4.62693 9.375V15.4844C4.62693 16.3367 5.12202 17.1158 5.90578 17.4969L5.96344 17.5249C6.60591 17.8373 7.31436 18 8.03267 18H14.2977C15.4005 18 16.3499 17.243 16.5662 16.1913L17.9543 9.44126C18.2406 8.04898 17.1457 6.75 15.6857 6.75H11.5673V2.25C11.5673 1.00736 10.5316 0 9.25386 0C8.61502 0 8.09713 0.50368 8.09713 1.125V1.875C8.09713 2.84867 7.77242 3.79607 7.17174 4.575L5.55232 6.675C4.95164 7.45393 4.62693 8.40133 4.62693 9.375Z" fill="#9C9C9C"/>
</svg>
