<svg width="55" height="30" viewBox="0 0 55 30" fill="none" xmlns="http://www.w3.org/2000/svg">
<rect width="55" height="30" rx="15" fill="#007BFF"/>
<path d="M35.73 15.339C36.0794 15.1802 36.3 14.8556 36.3 14.5005C36.3 14.1454 36.0794 13.8208 35.73 13.662L21.2925 7.09947C20.9267 6.93321 20.4874 6.97915 20.1727 7.21658C19.8581 7.45402 19.7274 7.83807 19.8398 8.19555L21.313 12.883C21.4395 13.2855 21.8441 13.563 22.3045 13.563L27.0188 13.563C27.5884 13.563 28.0501 13.9827 28.0501 14.5005C28.0501 15.0182 27.5884 15.438 27.0188 15.438L22.3046 15.438C21.8441 15.438 21.4395 15.7155 21.313 16.1179L19.8398 20.8054C19.7274 21.1629 19.8581 21.547 20.1727 21.7844C20.4874 22.0218 20.9267 22.0678 21.2925 21.9015L35.73 15.339Z" fill="white"/>
</svg>
