<svg width="31" height="31" viewBox="0 0 31 31" fill="none" xmlns="http://www.w3.org/2000/svg">
<path d="M15.5541 0.010376H15.4857C7.22034 0.010376 0.519897 6.71081 0.519897 14.9762V15.0445C0.519897 23.3099 7.22034 30.0104 15.4857 30.0104H15.5541C23.8195 30.0104 30.5199 23.3099 30.5199 15.0445V14.9762C30.5199 6.71081 23.8195 0.010376 15.5541 0.010376Z" fill="#2188F7"/>
<path d="M24.2799 9.58016C23.8689 9.99532 23.2992 10.2528 22.6676 10.2528C22.5866 10.2528 22.5078 10.2486 22.429 10.2402C23.088 9.84502 23.5967 9.22596 23.85 8.48812L23.851 8.48707C23.8868 8.38828 23.9162 8.28843 23.9393 8.18542C23.418 8.74248 22.7054 9.1198 21.9055 9.21019C21.7826 9.22491 21.6575 9.23227 21.5324 9.23227C21.4925 9.23227 21.4536 9.23121 21.4158 9.22911C21.1456 8.94533 20.823 8.70989 20.4656 8.53752C20.0673 8.34308 19.6216 8.22852 19.1518 8.2138C19.1129 8.2117 19.0751 8.21065 19.0351 8.21065C18.6368 8.21065 18.2542 8.28107 17.9011 8.4114C17.8107 8.44398 17.7224 8.48077 17.6362 8.52281C16.5168 9.04728 15.7422 10.1856 15.7422 11.5036C15.7422 11.7737 15.7748 12.0375 15.8368 12.2887C15.4942 12.275 15.1547 12.2425 14.8215 12.192C14.7143 12.1752 14.6081 12.1563 14.502 12.1363C13.6527 11.9786 12.8424 11.7075 12.0898 11.3375C11.4161 11.0085 10.7886 10.6018 10.2169 10.1288C9.73654 9.73256 9.29721 9.29112 8.90412 8.80764C8.8873 8.78767 8.87047 8.7656 8.85365 8.74563C8.83053 8.78032 8.80951 8.81605 8.79059 8.85284C8.51627 9.33316 8.36072 9.88812 8.36072 10.4809C8.36072 10.4988 8.36072 10.5187 8.36177 10.5366C8.36808 10.9802 8.46267 11.4027 8.63083 11.7874C8.7023 11.9576 8.78955 12.1184 8.8894 12.2719C9.18369 12.7249 9.58519 13.1022 10.0603 13.3629C10.0823 13.3765 10.1033 13.3881 10.1265 13.3986C10.0928 13.4049 10.0571 13.4112 10.0224 13.4144C9.92467 13.427 9.82482 13.4333 9.72392 13.4333C9.21837 13.4333 8.74856 13.2756 8.36388 13.0066C8.36177 13.0349 8.36177 13.0633 8.36177 13.0928C8.36177 14.0334 8.75592 14.8816 9.38759 15.4797C9.87948 15.9484 10.5154 16.2648 11.2217 16.3563C10.9673 16.4498 10.693 16.4992 10.4061 16.4992C10.096 16.4992 9.7996 16.4403 9.52843 16.3321C9.93308 17.6469 11.1386 18.6107 12.5765 18.6549C11.6988 19.5672 10.4649 20.1337 9.10066 20.1337C8.25247 20.1337 7.45471 19.914 6.76312 19.5304C8.42483 20.9682 10.591 21.8364 12.9612 21.8364C18.1985 21.8364 22.4437 17.5912 22.4437 12.3539C22.4437 12.0659 22.4311 11.78 22.4048 11.4983C23.2709 11.1567 23.9582 10.4567 24.283 9.58016H24.2799Z" fill="white"/>
</svg>
