<svg width="26" height="22" viewBox="0 0 26 22" fill="none" xmlns="http://www.w3.org/2000/svg">
<path fill-rule="evenodd" clip-rule="evenodd" d="M14.7377 0.0749924C15.1129 -0.0790917 15.5439 0.0086382 15.829 0.29709L25.7113 10.2971C26.0963 10.6866 26.0963 11.3134 25.7113 11.7029L15.829 21.7029C15.5439 21.9914 15.1129 22.0791 14.7377 21.925C14.3626 21.7709 14.1177 21.4055 14.1177 21V14.85C11.9008 14.8724 9.01502 15.1466 6.58691 15.8901C5.18338 16.3199 4.00751 16.8843 3.19928 17.5852C2.41563 18.2648 2 19.0466 2 20C2 20.5523 1.55229 21 1 21C0.447716 21 6.55659e-07 20.5523 0 20C-2.74181e-06 17.5924 0.691853 14.0411 2.9472 11.0656C5.11052 8.21148 8.64577 5.97848 14.1177 5.73612V1C14.1177 0.594461 14.3626 0.229076 14.7377 0.0749924Z" fill="black"/>
</svg>
